<svg version="1.1" id="Layer_1" xmlns="http://www.w3.org/2000/svg" xmlns:xlink="http://www.w3.org/1999/xlink" x="0px" y="0px"
	 viewBox="0 0 20.7 27">
<style type="text/css">
	.favIconFrame{fill:#FFFFFF;}
	.favIconNumber{fill:#0C0C91;}
	
	@media (prefers-color-scheme: dark) {
      .favIconFrame{fill:#0C0C91; border: 1px solid #000000}
	  .favIconNumber{fill:#FFFFFF;}
    }
</style>
<g>
	<rect x="1" y="1" class="favIconFrame" width="19" height="25"/>
	<g>
		<path class="favIconNumber" d="M0,0v27h20.7V0H0z M3.2,11.1h2.5V5.4L4.3,6.8L3.5,5.4l2.2-2.2h1.6v7.9h2.2v1.6H3.2V11.1z M9.5,15.9l-1.9,1.9
			c1.1,0.5,1.9,1.6,1.9,2.9c0,1.8-1.4,3.2-3.2,3.2c-1.8,0-3.2-1.4-3.2-3.2h1.6c0,0.9,0.7,1.6,1.6,1.6c0.9,0,1.6-0.7,1.6-1.6
			c0-0.9-0.7-1.6-1.6-1.6l-0.8-1.4l1.8-1.8H3.2v-1.6h6.4V15.9z M11.1,4.8V3.2h6.4v1.6h-4.1l1.8,1.8L14.3,8c-0.9,0-1.6,0.7-1.6,1.6
			c0,0.9,0.7,1.6,1.6,1.6c0.9,0,1.6-0.7,1.6-1.6h1.6c0,1.8-1.4,3.2-3.2,3.2c-1.8,0-3.2-1.4-3.2-3.2c0-1.3,0.8-2.4,1.9-2.9L11.1,4.8z
			 M17.5,15.9l-4.4,7.9h-1.8l4.4-7.9h-4.5v-1.6h6.4V15.9z"/>
	</g>
</g>
</svg>
